# xmcd
#
# Track frame offsets: 
#        150
#        21499
#        55186
#        81857
#        112334
#        138933
#        182037
#        225252
#        256182
#
# Disc length: 3654 seconds
#
# Revision: 0
# Processed by: cddbd v1.5.2PL0 Copyright (c) Steve Scherf et al.
# Submitted via: ExactAudioCopyFreeDBPlugin 1.0
#
DISCID=730e4409
DTITLE=Widespread Panic - carbondale 2000 Disc 1
DYEAR=2000
DGENRE=Slow Rock
TTITLE0=Let's Get Down to Business 
TTITLE1=Tall Boy
TTITLE2=Rock
TTITLE3=Jack
TTITLE4=Stop Breakin Down Blues
TTITLE5=Party at Your Mamas House 
TTITLE6=Impossible 
TTITLE7=Genesis 
TTITLE8=Give 
EXTD=
EXTT0=
EXTT1=
EXTT2=
EXTT3=
EXTT4=
EXTT5=
EXTT6=
EXTT7=
EXTT8=
PLAYORDER=
